<svg width="144" height="144" viewBox="0 0 144 144" fill="none" xmlns="http://www.w3.org/2000/svg">
<g clip-path="url(#clip0)">
<path d="M64.8391 11.5323H78.9598C80.1409 11.5323 81.0978 10.5754 81.0978 9.39435C81.0978 8.21332 80.1409 7.25531 78.9598 7.25531H64.8391C63.6581 7.25531 62.7001 8.21332 62.7001 9.39435C62.7001 10.5754 63.6581 11.5323 64.8391 11.5323Z" fill="#0F2852"/>
<path d="M78.9598 129.389H64.8391C63.6581 129.389 62.7001 130.346 62.7001 131.527C62.7001 132.708 63.6581 133.666 64.8391 133.666H78.9598C80.1409 133.666 81.0978 132.708 81.0978 131.527C81.0978 130.346 80.1409 129.389 78.9598 129.389Z" fill="#0F2852"/>
<path d="M119.761 14.0702V11.2873C119.761 5.06359 114.697 0 108.473 0H35.3255C29.1018 0 24.0382 5.06359 24.0382 11.2873V14.0702C20.6742 14.2789 18.0001 17.0804 18.0001 20.4972V29.3587C18.0001 32.7743 20.6731 35.5759 24.0371 35.7846V36.3658C20.6731 36.5756 18.0001 39.3771 18.0001 42.7928V51.6543C18.0001 55.07 20.6731 57.8715 24.0371 58.0813L24.0382 132.713C24.0382 138.937 29.1018 144 35.3255 144H108.473C114.697 144 119.761 138.936 119.761 132.713V44.4045C123.125 44.1957 125.798 41.3942 125.798 37.9786V20.4972C125.798 17.0815 123.125 14.28 119.761 14.0702ZM28.3152 18.3339H115.484V120.22H28.3152V18.3339ZM35.3255 4.27697H108.473C112.34 4.27697 115.484 7.42235 115.484 11.2873V14.0559H28.3152V11.2873C28.3152 7.42235 31.4605 4.27697 35.3255 4.27697ZM22.2771 29.3587V20.4972C22.2771 19.4425 23.0362 18.5603 24.0371 18.3713V31.4835C23.0362 31.2945 22.2771 30.4134 22.2771 29.3587ZM22.2771 51.6543V42.7928C22.2771 41.7381 23.0362 40.857 24.0371 40.6669V53.7791C23.0362 53.5901 22.2771 52.709 22.2771 51.6543ZM108.473 139.723H35.3255C31.4605 139.723 28.3163 136.577 28.3163 132.712V124.497H115.484V132.712C115.484 136.577 112.34 139.723 108.473 139.723ZM121.521 37.9786C121.521 39.0332 120.762 39.9143 119.761 40.1044V18.3713C120.762 18.5614 121.521 19.4425 121.521 20.4972V37.9786Z" fill="#0F2852"/>
<path d="M97.0533 48.9727C96.4457 46.5381 95.4822 44.2156 94.1815 42.048C93.5739 41.035 92.2599 40.7065 91.247 41.3152C90.2352 41.9227 89.9067 43.2367 90.5142 44.2496C91.8458 46.4678 92.751 48.8815 93.2059 51.4237C93.3871 52.4432 94.2748 53.1859 95.3109 53.1859C95.3768 53.1859 95.4427 53.1848 95.5086 53.1815L95.5591 53.1804C101.964 53.1804 107.176 58.3901 107.176 64.7941C107.176 71.2002 101.964 76.411 95.5591 76.411H85.5132V69.3853C85.5132 68.2042 84.5552 67.2462 83.3742 67.2462H60.4227C59.2416 67.2462 58.2847 68.2042 58.2847 69.3853V76.411H51.4919C43.2928 76.411 36.6219 69.7401 36.6219 61.541C36.6219 53.3584 43.2796 46.6886 51.4644 46.6732C52.2664 46.6721 52.9992 46.2217 53.3651 45.5087C57.0202 38.3632 64.2734 33.9247 72.2912 33.9247C77.1032 33.9247 81.6373 35.4924 85.4045 38.4587C86.3328 39.1893 87.6776 39.03 88.4081 38.1017C89.1387 37.1744 88.9794 35.8297 88.0511 35.0991C83.5225 31.533 78.0722 29.6477 72.2912 29.6477C63.0847 29.6477 54.7197 34.5179 50.1647 42.4424C40.2254 43.1268 32.3449 51.438 32.3449 61.541C32.3449 72.0989 40.934 80.6891 51.4919 80.6891H58.2847V87.2732H50.6536C49.8022 87.2732 49.032 87.7775 48.6926 88.5586C48.3531 89.3397 48.5091 90.2472 49.0903 90.8701L58.1946 100.631C59.001 101.495 60.3546 101.542 61.217 100.736C62.0816 99.9305 62.1277 98.577 61.3224 97.7135L55.5733 91.5502H60.4227C61.6037 91.5502 62.5617 90.5933 62.5617 89.4122V71.5243H81.2363V89.4122C81.2363 90.5933 82.1932 91.5502 83.3742 91.5502H88.2236L71.9001 109.048L67.1507 103.958C66.3443 103.095 64.9919 103.047 64.1284 103.853C63.2648 104.659 63.2176 106.013 64.0229 106.876L70.3367 113.643C70.741 114.077 71.3068 114.323 71.9001 114.323C72.4933 114.323 73.0591 114.077 73.4634 113.643L94.7077 90.8701C95.2878 90.2472 95.4438 89.3397 95.1043 88.5586C94.7659 87.7775 93.9947 87.2732 93.1432 87.2732H85.5132V80.6891H95.5591C104.323 80.6891 111.453 73.559 111.453 64.7952C111.453 56.5356 105.118 49.7274 97.0533 48.9727Z" fill="#0F2852"/>
</g>
<defs>
<clipPath id="clip0">
<rect width="144" height="144" fill="white"/>
</clipPath>
</defs>
</svg>
