<svg width="201" height="201" viewBox="0 0 201 201" fill="none" xmlns="http://www.w3.org/2000/svg">
<path d="M108.578 28H105.75V18.1416L94.9985 18.1416V28H92.186V6.67188L94.9985 6.67188V15.8418L105.75 15.8418V6.67188H108.578V28Z" fill="#0F2852"/>
<path d="M138.474 26.8363C137.719 28.785 136.731 30.3608 135.511 31.5638C134.295 32.7577 132.937 33.5043 131.439 33.8035C129.941 34.1028 128.39 33.942 126.787 33.3211C125.221 32.7143 123.981 31.7939 123.066 30.5598C122.155 29.3166 121.637 27.8541 121.514 26.1725C121.403 24.4853 121.702 22.7003 122.41 20.8173L122.966 19.3831C123.706 17.4708 124.693 15.9104 125.926 14.7018C127.159 13.4933 128.531 12.7366 130.042 12.4317C131.565 12.1213 133.11 12.2695 134.676 12.8763C136.27 13.4936 137.522 14.4239 138.434 15.6671C139.358 16.9048 139.863 18.3836 139.951 20.1037C140.042 21.8147 139.712 23.64 138.961 25.5796L138.474 26.8363ZM136.362 24.5416C137.276 22.1831 137.503 20.1921 137.043 18.5685C136.586 16.9359 135.506 15.7897 133.803 15.13C132.146 14.488 130.594 14.6146 129.147 15.51C127.714 16.3997 126.549 17.9594 125.654 20.1889L125.088 21.6505C124.202 23.9361 123.984 25.9198 124.432 27.6015C124.893 29.2776 125.965 30.442 127.65 31.0946C129.344 31.7508 130.893 31.6441 132.298 30.7746C133.707 29.896 134.871 28.3101 135.791 26.0168L136.362 24.5416Z" fill="#0F2852"/>
<path d="M149.197 37.9554L147.606 40.3101L149.757 38.842L162.901 30.6856L164.655 32.2843L157.67 46.0559L156.366 48.3559L158.636 46.5401L170.912 37.9884L173.001 39.893L154.811 52.1711L152.917 50.4441L160.14 35.9978L160.986 34.5692L159.642 35.5438L145.804 43.9604L143.91 42.2334L154.468 22.998L156.547 24.8927L149.197 37.9554Z" fill="#0F2852"/>
<path d="M173.85 60.5994C174.61 60.2207 175.355 60.1499 176.084 60.3869C176.817 60.6327 177.384 61.1577 177.785 61.962C178.181 62.7575 178.263 63.5241 178.03 64.2618C177.806 64.9951 177.287 65.5642 176.474 65.969L175.989 66.2106C175.229 66.5893 174.488 66.6579 173.768 66.4166C173.048 66.1752 172.483 65.6436 172.074 64.8219C171.669 64.0089 171.585 63.2379 171.822 62.509C172.073 61.7844 172.582 61.2306 173.352 60.8475L173.85 60.5994Z" fill="#1180E5"/>
<path d="M172.273 95.2548L172.013 92.4543L193.25 90.4864L193.51 93.2869L172.273 95.2548Z" fill="#0F2852"/>
<path d="M185.682 132.853L187.558 126.26L169.27 121.056L170.036 118.365L188.324 123.569L190.196 116.989L192.422 117.622L187.908 133.487L185.682 132.853Z" fill="#0F2852"/>
<path d="M168.412 148.184C169.09 148.696 169.485 149.331 169.598 150.089C169.705 150.855 169.487 151.597 168.946 152.314C168.41 153.023 167.76 153.438 166.996 153.558C166.24 153.685 165.5 153.474 164.775 152.927L164.342 152.6C163.664 152.088 163.273 151.456 163.168 150.704C163.063 149.951 163.287 149.209 163.84 148.476C164.388 147.752 165.04 147.333 165.799 147.22C166.559 147.121 167.282 147.331 167.967 147.848L168.412 148.184Z" fill="#1180E5"/>
<path d="M146.727 163.91L144.898 161.735L145.721 164.206L149.969 179.08L147.951 180.33L136.617 169.843L134.762 167.959L135.887 170.639L140.753 184.787L138.349 186.275L131.518 165.419L133.697 164.07L145.615 174.971L146.758 176.176L146.188 174.616L141.88 159.003L144.059 157.654L159.671 173.073L157.28 174.554L146.727 163.91Z" fill="#0F2852"/>
<path d="M106.552 182.246C106.168 180.192 106.178 178.332 106.582 176.667C106.988 175.012 107.749 173.662 108.865 172.619C109.982 171.576 111.385 170.896 113.074 170.581C114.725 170.272 116.264 170.402 117.692 170.969C119.121 171.546 120.331 172.517 121.321 173.882C122.304 175.258 122.989 176.933 123.378 178.907L123.661 180.419C124.038 182.435 124.02 184.281 123.608 185.958C123.196 187.634 122.428 189 121.304 190.054C120.172 191.12 118.781 191.808 117.13 192.116C115.45 192.43 113.895 192.299 112.466 191.721C111.029 191.155 109.82 190.164 108.84 188.748C107.862 187.341 107.182 185.616 106.8 183.571L106.552 182.246ZM109.555 183.086C110.02 185.572 110.875 187.384 112.121 188.522C113.369 189.67 114.89 190.076 116.685 189.74C118.433 189.414 119.685 188.489 120.444 186.966C121.195 185.455 121.364 183.516 120.951 181.149L120.663 179.608C120.213 177.199 119.354 175.397 118.088 174.203C116.814 173.021 115.289 172.596 113.513 172.928C111.727 173.261 110.466 174.168 109.729 175.647C108.994 177.135 108.839 179.097 109.264 181.531L109.555 183.086Z" fill="#0F2852"/>
<path d="M84.0602 178.969L88.9847 179.89L90.5701 171.409L93.3491 171.928L89.4301 192.893L82.4897 191.596C80.1283 191.155 78.4145 190.278 77.3484 188.966C76.2726 187.652 75.9268 185.968 76.3108 183.914C76.5548 182.608 77.1226 181.537 78.0142 180.7C78.8962 179.862 80.0108 179.32 81.3581 179.075L78.097 169.256L78.1293 169.083L81.0955 169.638L84.0602 178.969ZM88.5621 182.151L84.3144 181.357C82.9417 181.1 81.7858 181.251 80.8467 181.811C79.8979 182.369 79.3123 183.243 79.0898 184.433C78.8475 185.729 79.0506 186.795 79.6989 187.632C80.3377 188.467 81.3857 189.025 82.843 189.308L87.0763 190.099L88.5621 182.151Z" fill="#0F2852"/>
<path d="M58.1378 170.178L61.7813 169.247L65.5753 163.119L67.9665 164.6L56.7387 182.733L54.3475 181.253L59.8997 172.286L46.2895 176.264L43.4001 174.475L55.4949 170.885L54.0675 155.994L56.932 157.768L58.1378 170.178Z" fill="#0F2852"/>
<path d="M35.4482 149.236C36.3486 151.578 36.7299 153.493 36.5922 154.98C36.4408 156.465 35.7729 157.655 34.5883 158.549C33.2479 159.561 31.7382 159.863 30.0591 159.455C28.3663 159.044 26.8725 157.982 25.5778 156.267C24.6951 155.098 24.1354 153.887 23.8988 152.634C23.6564 151.373 23.7443 150.193 24.1626 149.094C24.5749 147.987 25.2526 147.078 26.1956 146.366L27.8993 148.622C26.8706 149.399 26.3112 150.335 26.2211 151.431C26.1231 152.533 26.5244 153.68 27.4248 154.873C28.2605 155.979 29.1592 156.659 30.121 156.912C31.0691 157.162 31.9757 156.961 32.8407 156.308C33.5343 155.784 33.902 155.048 33.9438 154.098C33.9719 153.147 33.6521 151.816 32.9843 150.105C32.3107 148.387 31.9153 146.948 31.7982 145.788C31.6674 144.626 31.7773 143.613 32.128 142.749C32.4728 141.876 33.0777 141.114 33.9427 140.46C35.3221 139.419 36.8348 139.121 38.4808 139.567C40.1191 140.018 41.6179 141.144 42.9773 142.944C43.8601 144.113 44.4619 145.372 44.7828 146.721C45.0958 148.075 45.0716 149.323 44.7102 150.465C44.3428 151.599 43.6643 152.54 42.6745 153.287L40.9708 151.031C41.9995 150.254 42.5284 149.261 42.5577 148.052C42.5732 146.841 42.1013 145.6 41.1421 144.33C40.2475 143.146 39.3203 142.42 38.3605 142.154C37.4006 141.887 36.5037 142.069 35.6699 142.699C34.836 143.329 34.4137 144.106 34.4031 145.032C34.3847 145.964 34.7331 147.365 35.4482 149.236Z" fill="#0F2852"/>
<path d="M20.9685 125.234C20.1513 125.467 19.4062 125.399 18.7332 125.032C18.0576 124.656 17.5968 124.036 17.351 123.172C17.1078 122.317 17.1683 121.548 17.5326 120.866C17.8874 120.186 18.5017 119.722 19.3752 119.474L19.8965 119.325C20.7137 119.093 21.4541 119.161 22.1176 119.531C22.7812 119.901 23.2386 120.527 23.4899 121.41C23.7384 122.283 23.6792 123.057 23.3122 123.73C22.9332 124.396 22.3304 124.847 21.5039 125.082L20.9685 125.234Z" fill="#1180E5"/>
<path d="M19.2312 92.6254C18.3182 94.9632 17.31 96.6351 16.2066 97.6411C15.0944 98.6365 13.7993 99.0657 12.3213 98.9287C10.6487 98.7738 9.32966 97.9797 8.36403 96.5466C7.38956 95.1029 7.00145 93.3114 7.19968 91.1721C7.33484 89.7135 7.73713 88.4415 8.40654 87.3561C9.07686 86.2609 9.93677 85.4481 10.9863 84.9177C12.0367 84.3775 13.1502 84.162 14.3268 84.271L14.0659 87.0861C12.7824 86.9671 11.7381 87.2823 10.9331 88.0315C10.1184 88.7799 9.64212 89.8979 9.50426 91.3857C9.37631 92.7665 9.5826 93.8742 10.1231 94.7089C10.6548 95.533 11.4604 95.995 12.5397 96.095C13.4052 96.1752 14.1731 95.8786 14.8436 95.2052C15.5052 94.5211 16.1655 93.322 16.8245 91.6079C17.4845 89.8841 18.1618 88.5542 18.8566 87.6183C19.5426 86.6717 20.3063 85.9971 21.1478 85.5945C21.9903 85.1822 22.9512 85.026 24.0305 85.126C25.7517 85.2855 27.0703 86.0844 27.9864 87.5227C28.8928 88.9602 29.2419 90.802 29.0338 93.0482C28.8986 94.5068 28.4953 95.8425 27.8239 97.0553C27.1428 98.2671 26.2841 99.1732 25.2477 99.7735C24.2122 100.364 23.077 100.602 21.8421 100.488L22.1029 97.6726C23.3865 97.7915 24.4463 97.4141 25.2825 96.5402C26.1098 95.6558 26.5969 94.421 26.7438 92.836C26.8807 91.358 26.6843 90.1972 26.1544 89.3537C25.6245 88.5102 24.8393 88.0402 23.7988 87.9438C22.7584 87.8474 21.9223 88.1377 21.2908 88.8148C20.6495 89.4909 19.963 90.7611 19.2312 92.6254Z" fill="#0F2852"/>
<path d="M29.8042 58.1363L25.6842 66.4105L32.4504 69.7796L37.2364 60.168L39.2951 61.1931L33.2554 73.3224L14.1633 63.8156L20.1377 51.8175L22.2095 52.8491L17.4887 62.3296L23.6255 65.3854L27.7455 57.1112L29.8042 58.1363Z" fill="#0F2852"/>
<path d="M49.6946 35.4598L42.8638 41.6869L47.956 47.2727L55.8909 40.039L57.4403 41.7386L47.4269 50.8671L33.0582 35.1054L42.9634 26.0756L44.5226 27.786L36.6959 34.921L41.3144 39.9873L48.1452 33.7602L49.6946 35.4598Z" fill="#0F2852"/>
<path d="M67.9481 23.2318C67.6412 22.4396 67.6393 21.6915 67.9426 20.9875C68.255 20.28 68.8301 19.764 69.6679 19.4394C70.4965 19.1184 71.2674 19.1077 71.9805 19.4075C72.69 19.6982 73.2088 20.2669 73.5369 21.1138L73.7327 21.6192C74.0396 22.4114 74.0397 23.155 73.7329 23.8498C73.4261 24.5447 72.8447 25.0579 71.9887 25.3896C71.1418 25.7176 70.3664 25.73 69.6624 25.4267C68.964 25.1108 68.4596 24.5522 68.1492 23.7509L67.9481 23.2318Z" fill="#1180E5"/>
</svg>
