<svg width="144" height="144" viewBox="0 0 144 144" fill="none" xmlns="http://www.w3.org/2000/svg">
<path d="M73.915 139.199C73.3922 138.676 72.6666 138.375 71.9269 138.375C71.1869 138.375 70.4613 138.676 69.9384 139.199C69.4153 139.722 69.1144 140.448 69.1144 141.188C69.1144 141.927 69.415 142.653 69.9384 143.176C70.4613 143.699 71.1869 144 71.9269 144C72.6666 144 73.3922 143.699 73.915 143.176C74.4382 142.653 74.7394 141.927 74.7394 141.188C74.7394 140.448 74.4384 139.722 73.915 139.199Z" fill="#0F2852"/>
<path d="M128.97 91.9887L119.588 89.7474V86.0259C124.796 82.7345 128.264 76.9298 128.264 70.3271V59.8458C128.264 49.6103 119.937 41.2833 109.701 41.2833C104.18 41.2833 99.2163 43.7094 95.8129 47.5481C92.8322 37.2254 83.2987 29.6542 72.0293 29.6542H72.029C60.7413 29.6542 51.1948 37.2493 48.2307 47.5974C44.8265 43.7302 39.845 41.2833 34.2998 41.2833C24.064 41.2833 15.7368 49.6105 15.7368 59.8458V70.3271C15.7368 76.93 19.2052 82.7348 24.4128 86.0259V89.7474L15.0308 91.9887C6.18075 94.1026 0 101.933 0 111.032V129.937C0 131.491 1.25944 132.75 2.8125 132.75H25.3021V141.187C25.3021 142.741 26.5615 144 28.1146 144H58.9688C60.5219 144 61.7813 142.741 61.7813 141.187C61.7813 139.634 60.5219 138.375 58.9688 138.375H46.413V125.997C46.413 124.443 45.1536 123.184 43.6005 123.184C42.0474 123.184 40.788 124.443 40.788 125.997V138.375H30.9268V125.686C30.9268 116.147 37.4051 107.933 46.681 105.711L60.5138 102.396L69.4142 122.645C69.8631 123.666 70.873 124.325 71.9885 124.325H71.9888C73.1042 124.325 74.1144 123.666 74.5633 122.645L83.4548 102.426L97.2473 105.72C106.532 107.938 113.016 116.154 113.016 125.699V128.837C112.872 129.175 112.792 129.547 112.792 129.937C112.792 130.328 112.872 130.699 113.016 131.037V138.375H103.212V125.997C103.212 124.443 101.953 123.184 100.4 123.184C98.8464 123.184 97.587 124.443 97.587 125.997V138.375H83.8128C82.2597 138.375 81.0003 139.634 81.0003 141.187C81.0003 142.741 82.2597 144 83.8128 144H115.828C117.381 144 118.641 142.741 118.641 141.187V132.75H141.188C142.741 132.75 144 131.491 144 129.937V111.032C144 101.933 137.819 94.1026 128.97 91.9887ZM109.701 46.9083C116.835 46.9083 122.639 52.7122 122.639 59.8458V60.5422V60.8248H114.594C108.518 60.8248 102.546 59.2293 97.2838 56.205C98.8605 50.8382 103.83 46.9083 109.701 46.9083ZM96.7627 69.8681C96.7725 69.581 96.7795 62.3059 96.7795 62.3059C102.309 65.025 108.404 66.4501 114.594 66.4501H122.639V70.3274C122.639 77.461 116.835 83.2646 109.701 83.2646C102.567 83.2646 96.7627 77.4608 96.7627 70.3271V69.8681ZM52.9031 54.4045C52.9031 43.8587 61.4829 35.2795 72.029 35.2795C82.5747 35.2795 91.1545 43.859 91.1545 54.4045V54.7712L80.7159 48.6385C79.5316 47.9425 78.0179 48.2043 77.1356 49.257C73.08 54.0968 67.1321 56.8727 60.8172 56.8727H52.9031V54.4045ZM21.3612 60.5424V59.8458C21.3612 52.7119 27.1654 46.9083 34.2993 46.9083C40.1698 46.9083 45.1395 50.8382 46.7159 56.2053C41.4534 59.2293 35.4825 60.8251 29.4055 60.8251H21.3612V60.5424ZM21.3612 70.3271V66.4498H29.4058C35.6023 66.4498 41.704 65.0222 47.2373 62.2977V70.3271C47.2373 77.461 41.4332 83.2646 34.2993 83.2646C27.1654 83.2646 21.3612 77.4608 21.3612 70.3271ZM25.3021 125.686V127.125H16.875V114.629C16.875 113.076 15.6156 111.817 14.0625 111.817C12.5094 111.817 11.25 113.076 11.25 114.629V127.125H5.625V111.032C5.625 104.547 10.0299 98.9665 16.337 97.4599L25.252 95.33L31.0705 109.267C27.4314 113.788 25.3021 119.518 25.3021 125.686ZM34.2998 102.401L30.0285 92.1698C30.0333 92.1026 30.0372 92.0354 30.0372 91.9674V88.3904C31.4066 88.7133 32.8326 88.8896 34.2993 88.8896C35.7595 88.8896 37.1787 88.7147 38.5428 88.3946V91.7893C38.5397 91.8422 38.5383 91.8951 38.5383 91.9479C38.5383 92.0365 38.5467 92.1246 38.5552 92.2126L34.2998 102.401ZM45.3704 100.241C43.7096 100.639 42.1225 101.192 40.6156 101.875L43.355 95.3159L52.2714 97.4526C52.963 97.6182 53.6369 97.8373 54.2891 98.1034L45.3704 100.241ZM59.3305 94.3785C57.5648 93.2833 55.6276 92.4725 53.5823 91.9825L44.1678 89.7266V86.038C46.5092 84.5623 48.4979 82.5789 49.9804 80.2423C52.1007 84.3849 55.3551 87.8538 59.3305 90.2399V94.3785ZM79.0124 98.5537L71.9893 114.525L64.9555 98.5224V92.7219C67.1977 93.3919 69.5717 93.7533 72.0287 93.7533C74.4531 93.7533 76.7967 93.4012 79.0124 92.7484V98.5537ZM72.029 88.1286C61.4827 88.1283 52.9031 79.5488 52.9031 69.0033V62.498H60.8169C67.9956 62.498 74.7993 59.6607 79.8258 54.6396L91.1379 61.2852V69.6634C90.7881 79.904 82.3537 88.1286 72.029 88.1286ZM84.6374 90.2928H84.6377C88.6376 87.9148 91.9147 84.4434 94.0514 80.2918C95.5308 82.6068 97.5077 84.5724 99.8322 86.038V89.7266L90.4176 91.9825C88.36 92.4756 86.4118 93.2937 84.6374 94.399V90.2928ZM98.5539 100.25L89.6594 98.1248C90.3277 97.8491 91.0187 97.6227 91.7286 97.4526L100.623 95.3213L103.374 101.91C101.848 101.215 100.239 100.652 98.5539 100.25ZM105.439 92.2545C105.45 92.1524 105.458 92.0498 105.458 91.9468C105.458 91.9207 105.458 91.8942 105.457 91.8681V88.3946C106.821 88.715 108.24 88.8896 109.701 88.8896C111.167 88.8896 112.593 88.7133 113.963 88.3901V91.9671C113.963 92.0183 113.966 92.0686 113.969 92.1192L109.675 102.401L105.439 92.2545ZM138.375 127.125H132.75V114.629C132.75 113.076 131.491 111.817 129.938 111.817C128.384 111.817 127.125 113.076 127.125 114.629V127.125H118.641V125.699C118.641 119.54 116.518 113.818 112.89 109.301L118.726 95.3249L127.663 97.4599C133.97 98.9665 138.375 104.547 138.375 111.032V127.125Z" fill="#0F2852"/>
<path d="M64.5551 65.8631C64.0322 65.34 63.3066 65.0391 62.5669 65.0391C61.8272 65.0391 61.1016 65.34 60.5785 65.8631C60.0553 66.3862 59.7544 67.1119 59.7544 67.8516C59.7544 68.5912 60.055 69.3169 60.5785 69.84C61.1019 70.3631 61.8272 70.6641 62.5669 70.6641C63.3094 70.6641 64.0322 70.3631 64.5551 69.84C65.081 69.3169 65.3794 68.5912 65.3794 67.8516C65.3794 67.1119 65.081 66.3862 64.5551 65.8631Z" fill="#0F2852"/>
<path d="M83.3622 65.8631C82.8394 65.34 82.1138 65.0391 81.3741 65.0391C80.6344 65.0391 79.9088 65.34 79.3857 65.8631C78.8625 66.3862 78.5616 67.1119 78.5616 67.8516C78.5616 68.5912 78.8622 69.3169 79.3857 69.84C79.9091 70.3631 80.6344 70.6641 81.3741 70.6641C82.1138 70.6641 82.8394 70.3631 83.3622 69.84C83.8882 69.3169 84.1866 68.5912 84.1866 67.8516C84.1866 67.1119 83.8882 66.3862 83.3622 65.8631Z" fill="#0F2852"/>
<path d="M77.4132 75.3305C76.3147 74.2323 74.5344 74.2323 73.4355 75.3305C72.6039 76.1622 71.2508 76.1622 70.4191 75.3305C69.3205 74.2323 67.5402 74.2323 66.4414 75.3305C65.3431 76.4288 65.3431 78.2097 66.4414 79.3083C67.954 80.8205 69.9404 81.5768 71.9272 81.5768C73.9139 81.5768 75.9004 80.8208 77.413 79.3083C78.5115 78.2097 78.5115 76.4288 77.4132 75.3305Z" fill="#0F2852"/>
<path d="M116.291 15.1875H114.362C112.809 15.1875 111.549 16.4467 111.549 18C111.549 19.5533 112.809 20.8125 114.362 20.8125H116.291C117.844 20.8125 119.103 19.5533 119.103 18C119.103 16.4467 117.844 15.1875 116.291 15.1875Z" fill="#0F2852"/>
<path d="M129.938 15.1875H128.008C126.455 15.1875 125.196 16.4467 125.196 18C125.196 19.5533 126.455 20.8125 128.008 20.8125H129.938C131.491 20.8125 132.75 19.5533 132.75 18C132.75 16.4467 131.491 15.1875 129.938 15.1875Z" fill="#0F2852"/>
<path d="M122.15 21.0462C120.597 21.0462 119.337 22.3054 119.337 23.8587V25.7878C119.337 27.3411 120.597 28.6003 122.15 28.6003C123.703 28.6003 124.962 27.3411 124.962 25.7878V23.8587C124.962 22.3054 123.703 21.0462 122.15 21.0462Z" fill="#0F2852"/>
<path d="M122.15 7.39966C120.597 7.39966 119.337 8.65882 119.337 10.2122V12.1413C119.337 13.6946 120.597 14.9538 122.15 14.9538C123.703 14.9538 124.962 13.6946 124.962 12.1413V10.2122C124.962 8.65882 123.703 7.39966 122.15 7.39966Z" fill="#0F2852"/>
<path d="M15.8349 15.1875H13.9061C12.3531 15.1875 11.0936 16.4467 11.0936 18C11.0936 19.5533 12.3531 20.8125 13.9061 20.8125H15.8349C17.388 20.8125 18.6474 19.5533 18.6474 18C18.6474 16.4467 17.388 15.1875 15.8349 15.1875Z" fill="#0F2852"/>
<path d="M29.4815 15.1875H27.5527C25.9996 15.1875 24.7402 16.4467 24.7402 18C24.7402 19.5533 25.9993 20.8125 27.5527 20.8125H29.4815C31.0345 20.8125 32.294 19.5533 32.294 18C32.294 16.4467 31.0345 15.1875 29.4815 15.1875Z" fill="#0F2852"/>
<path d="M21.6939 21.0462C20.1408 21.0462 18.8814 22.3054 18.8814 23.8587V25.7878C18.8814 27.3411 20.1406 28.6003 21.6939 28.6003C23.247 28.6003 24.5064 27.3411 24.5064 25.7878V23.8587C24.5064 22.3054 23.247 21.0462 21.6939 21.0462Z" fill="#0F2852"/>
<path d="M21.6939 7.39966C20.1408 7.39966 18.8814 8.65882 18.8814 10.2122V12.1413C18.8814 13.6946 20.1406 14.9538 21.6939 14.9538C23.247 14.9538 24.5064 13.6946 24.5064 12.1413V10.2122C24.5064 8.65882 23.247 7.39966 21.6939 7.39966Z" fill="#0F2852"/>
<path d="M72 10.712C70.4469 10.712 69.1875 11.9711 69.1875 13.5245V20.9242C69.1875 22.4775 70.4469 23.7367 72 23.7367C73.5531 23.7367 74.8125 22.4775 74.8125 20.9242V13.5245C74.8125 11.9711 73.5531 10.712 72 10.712Z" fill="#0F2852"/>
<path d="M73.9882 0.824063C73.4653 0.300938 72.7397 0 72 0C71.2603 0 70.5347 0.300938 70.0116 0.824063C69.4882 1.34719 69.1875 2.07281 69.1875 2.8125C69.1875 3.55219 69.4882 4.27781 70.0116 4.80094C70.535 5.32406 71.2603 5.625 72 5.625C72.7397 5.625 73.4653 5.32406 73.9882 4.80094C74.5116 4.27781 74.8125 3.55219 74.8125 2.8125C74.8125 2.07281 74.5116 1.34719 73.9882 0.824063Z" fill="#0F2852"/>
<path d="M62.1436 11.2835L58.0277 7.16764C56.9292 6.06936 55.1489 6.06936 54.05 7.16764C52.9517 8.26593 52.9517 10.0468 54.05 11.1454L58.1661 15.2612C58.7154 15.8105 59.4351 16.085 60.1548 16.085C60.8746 16.085 61.5943 15.8105 62.1436 15.2612C63.2418 14.1629 63.2418 12.382 62.1436 11.2835Z" fill="#0F2852"/>
<path d="M89.9494 7.01298C88.8508 5.9147 87.0705 5.9147 85.9716 7.01298L81.7183 11.2663C80.62 12.3646 80.62 14.1455 81.7183 15.244C82.2679 15.7933 82.9873 16.0678 83.7073 16.0678C84.4273 16.0678 85.1467 15.7933 85.696 15.244L89.9494 10.9907C91.0476 9.89242 91.0476 8.11154 89.9494 7.01298Z" fill="#0F2852"/>
</svg>
