<svg width="195" height="44" viewBox="0 0 195 44" fill="none" xmlns="http://www.w3.org/2000/svg">
<path d="M11.632 0.391999C13.296 0.391999 14.624 0.551999 15.616 0.871999C16.608 1.192 17.616 1.656 18.64 2.264C18.992 2.456 19.296 2.616 19.552 2.744C19.84 2.872 20.08 2.936 20.272 2.936C20.56 2.936 20.784 2.776 20.944 2.456C21.104 2.104 21.232 1.56 21.328 0.823999H22.432C22.272 2.968 22.192 6.616 22.192 11.768H21.088C20.96 10.04 20.56 8.392 19.888 6.824C19.248 5.256 18.32 3.992 17.104 3.032C15.92 2.04 14.528 1.544 12.928 1.544C11.36 1.544 10.08 1.992 9.088 2.888C8.128 3.752 7.648 4.936 7.648 6.44C7.648 7.56 7.888 8.536 8.368 9.368C8.848 10.2 9.52 10.968 10.384 11.672C11.248 12.344 12.576 13.272 14.368 14.456L15.904 15.512C17.792 16.76 19.28 17.848 20.368 18.776C21.456 19.704 22.336 20.792 23.008 22.04C23.712 23.256 24.064 24.68 24.064 26.312C24.064 28.36 23.536 30.088 22.48 31.496C21.424 32.872 19.984 33.912 18.16 34.616C16.368 35.32 14.368 35.672 12.16 35.672C10.368 35.672 8.88 35.512 7.696 35.192C6.512 34.872 5.424 34.44 4.432 33.896C3.728 33.448 3.184 33.224 2.8 33.224C2.512 33.224 2.288 33.4 2.128 33.752C1.968 34.072 1.84 34.6 1.744 35.336H0.64C0.768 33.32 0.832 29 0.832 22.376H1.936C2.16 25.96 2.96 28.872 4.336 31.112C5.712 33.32 7.824 34.424 10.672 34.424C12.4 34.424 13.824 33.96 14.944 33.032C16.064 32.104 16.624 30.776 16.624 29.048C16.624 27.256 16.048 25.72 14.896 24.44C13.744 23.16 11.92 21.72 9.424 20.12C7.504 18.872 5.968 17.784 4.816 16.856C3.664 15.928 2.72 14.84 1.984 13.592C1.248 12.312 0.88 10.84 0.88 9.176C0.88 7.256 1.36 5.64 2.32 4.328C3.312 2.984 4.624 1.992 6.256 1.352C7.888 0.711999 9.68 0.391999 11.632 0.391999ZM36.9273 10.184H42.5913V11.144H36.9273V30.536C36.9273 31.496 37.0873 32.184 37.4073 32.6C37.7593 32.984 38.3033 33.176 39.0393 33.176C40.4153 33.176 41.5033 32.216 42.3033 30.296L43.1193 30.728C41.9033 34.024 39.7113 35.672 36.5433 35.672C34.4313 35.672 32.8313 35.128 31.7433 34.04C31.0713 33.368 30.6073 32.536 30.3513 31.544C30.1273 30.52 30.0153 29.128 30.0153 27.368V11.144H25.9832V10.184H30.0153V3.848C32.6713 3.848 34.9753 3.336 36.9273 2.312V10.184ZM50.3943 35.336C48.3463 35.336 46.8103 34.808 45.7863 33.752C44.7943 32.696 44.2983 31.304 44.2983 29.576C44.2983 28.136 44.6663 26.952 45.4023 26.024C46.1703 25.064 47.0823 24.328 48.1383 23.816C49.2263 23.304 50.6023 22.76 52.2663 22.184C54.0263 21.576 55.3063 21.032 56.1063 20.552C56.9383 20.04 57.3543 19.352 57.3543 18.488V14.744C57.3543 13.4 57.0343 12.36 56.3943 11.624C55.7863 10.856 54.8263 10.472 53.5143 10.472C51.9783 10.472 50.8103 10.856 50.0103 11.624C50.9063 11.944 51.5943 12.424 52.0743 13.064C52.5863 13.704 52.8423 14.456 52.8423 15.32C52.8423 16.408 52.4743 17.272 51.7383 17.912C51.0023 18.552 50.1063 18.872 49.0503 18.872C47.9303 18.872 47.0663 18.52 46.4583 17.816C45.8503 17.112 45.5463 16.232 45.5463 15.176C45.5463 14.28 45.7543 13.528 46.1703 12.92C46.6183 12.28 47.2903 11.688 48.1863 11.144C49.0503 10.632 50.1063 10.232 51.3543 9.944C52.6343 9.656 54.0263 9.512 55.5303 9.512C57.0983 9.512 58.4583 9.672 59.6103 9.992C60.7623 10.312 61.7223 10.856 62.4903 11.624C63.1943 12.328 63.6583 13.192 63.8823 14.216C64.1383 15.24 64.2663 16.632 64.2663 18.392V31.448C64.2663 32.216 64.3303 32.76 64.4583 33.08C64.6183 33.4 64.9063 33.56 65.3223 33.56C65.8023 33.56 66.3783 33.288 67.0503 32.744L67.5303 33.56C66.0903 34.744 64.3303 35.336 62.2503 35.336C60.4903 35.336 59.2583 34.984 58.5543 34.28C57.8503 33.576 57.4823 32.632 57.4503 31.448C55.8503 34.04 53.4983 35.336 50.3943 35.336ZM54.0903 32.264C55.3383 32.264 56.4263 31.608 57.3543 30.296V20.456C56.9703 21.096 56.1543 21.8 54.9062 22.568C53.6583 23.368 52.7143 24.168 52.0743 24.968C51.4343 25.768 51.1143 26.92 51.1143 28.424C51.1143 29.736 51.3863 30.712 51.9303 31.352C52.4743 31.96 53.1943 32.264 54.0903 32.264ZM85.414 9.512C86.854 9.512 87.942 9.944 88.678 10.808C89.414 11.672 89.782 12.712 89.782 13.928C89.782 15.112 89.43 16.088 88.726 16.856C88.054 17.592 87.158 17.96 86.038 17.96C84.95 17.96 84.086 17.688 83.446 17.144C82.806 16.568 82.486 15.816 82.486 14.888C82.486 13.352 83.19 12.104 84.598 11.144C84.47 11.112 84.278 11.096 84.022 11.096C83.702 11.096 83.446 11.128 83.254 11.192C82.038 11.384 80.998 12.12 80.134 13.4C79.302 14.68 78.886 15.992 78.886 17.336V30.056C78.886 31.528 79.238 32.552 79.942 33.128C80.678 33.704 81.83 33.992 83.398 33.992V35C82.95 35 82.582 34.984 82.294 34.952C79.03 34.856 76.854 34.808 75.766 34.808C74.902 34.808 72.934 34.856 69.862 34.952C69.606 34.984 69.286 35 68.902 35V33.992C70.054 33.992 70.854 33.752 71.302 33.272C71.75 32.76 71.974 31.848 71.974 30.536V15.416C71.974 13.944 71.75 12.872 71.302 12.2C70.854 11.528 70.054 11.192 68.902 11.192V10.184C69.926 10.28 70.918 10.328 71.878 10.328C74.726 10.328 77.062 10.104 78.886 9.656V14.12C79.494 12.744 80.374 11.64 81.526 10.808C82.678 9.944 83.974 9.512 85.414 9.512ZM101.052 10.184H106.716V11.144H101.052V30.536C101.052 31.496 101.212 32.184 101.532 32.6C101.884 32.984 102.428 33.176 103.164 33.176C104.54 33.176 105.628 32.216 106.428 30.296L107.244 30.728C106.028 34.024 103.836 35.672 100.668 35.672C98.5563 35.672 96.9563 35.128 95.8683 34.04C95.1963 33.368 94.7323 32.536 94.4763 31.544C94.2523 30.52 94.1403 29.128 94.1403 27.368V11.144H90.1082V10.184H94.1403V3.848C96.7963 3.848 99.1003 3.336 101.052 2.312V10.184ZM136.359 30.968C136.775 32.024 137.255 32.792 137.799 33.272C138.343 33.752 138.871 34.008 139.383 34.04V35C137.463 34.904 135.031 34.856 132.087 34.856C128.823 34.856 126.391 34.904 124.791 35V34.04C126.007 33.976 126.871 33.832 127.383 33.608C127.895 33.352 128.151 32.92 128.151 32.312C128.151 31.736 127.959 30.968 127.575 30.008L124.695 22.136H114.231L112.983 25.448C112.087 27.752 111.639 29.528 111.639 30.776C111.639 31.96 111.991 32.792 112.695 33.272C113.431 33.72 114.503 33.976 115.911 34.04V35C113.735 34.904 111.751 34.856 109.959 34.856C108.487 34.856 107.271 34.904 106.311 35V34.04C107.879 33.752 109.255 32.072 110.439 29L121.383 0.919998C121.735 0.951998 122.295 0.967998 123.063 0.967998C123.831 0.967998 124.375 0.951998 124.695 0.919998L136.359 30.968ZM124.359 21.176L119.607 8.216L114.615 21.176H124.359ZM157.431 9.512C159.095 9.512 160.567 9.96 161.847 10.856C163.159 11.752 164.183 13.096 164.919 14.888C165.655 16.68 166.023 18.872 166.023 21.464C166.023 26.04 165.015 29.56 162.999 32.024C161.015 34.456 158.311 35.672 154.887 35.672C153.927 35.672 153.015 35.544 152.151 35.288C151.319 35.032 150.599 34.648 149.991 34.136V38.936C149.991 40.344 150.343 41.32 151.047 41.864C151.751 42.408 152.839 42.68 154.311 42.68V43.688L153.015 43.64C149.463 43.544 147.207 43.496 146.247 43.496C145.287 43.496 143.271 43.56 140.199 43.688V42.68C141.255 42.68 141.991 42.44 142.407 41.96C142.855 41.512 143.079 40.664 143.079 39.416V15.416C143.079 13.944 142.839 12.872 142.359 12.2C141.911 11.528 141.127 11.192 140.007 11.192V10.184C141.031 10.28 142.023 10.328 142.983 10.328C145.767 10.328 148.103 10.104 149.991 9.656V14.072C150.663 12.6 151.639 11.48 152.919 10.712C154.199 9.912 155.703 9.512 157.431 9.512ZM153.015 34.376C155.063 34.376 156.535 33.368 157.431 31.352C158.327 29.304 158.775 26.328 158.775 22.424C158.775 18.52 158.407 15.736 157.671 14.072C156.967 12.408 155.943 11.576 154.599 11.576C153.511 11.576 152.535 11.944 151.671 12.68C150.839 13.416 150.279 14.44 149.991 15.752V33.08C150.759 33.944 151.767 34.376 153.015 34.376ZM186.212 9.512C187.876 9.512 189.348 9.96 190.628 10.856C191.94 11.752 192.964 13.096 193.7 14.888C194.436 16.68 194.804 18.872 194.804 21.464C194.804 26.04 193.796 29.56 191.78 32.024C189.796 34.456 187.092 35.672 183.668 35.672C182.708 35.672 181.796 35.544 180.932 35.288C180.1 35.032 179.38 34.648 178.772 34.136V38.936C178.772 40.344 179.124 41.32 179.828 41.864C180.532 42.408 181.62 42.68 183.092 42.68V43.688L181.796 43.64C178.244 43.544 175.988 43.496 175.028 43.496C174.068 43.496 172.052 43.56 168.98 43.688V42.68C170.036 42.68 170.772 42.44 171.188 41.96C171.636 41.512 171.86 40.664 171.86 39.416V15.416C171.86 13.944 171.62 12.872 171.14 12.2C170.692 11.528 169.908 11.192 168.788 11.192V10.184C169.812 10.28 170.804 10.328 171.764 10.328C174.548 10.328 176.884 10.104 178.772 9.656V14.072C179.444 12.6 180.42 11.48 181.7 10.712C182.98 9.912 184.484 9.512 186.212 9.512ZM181.796 34.376C183.844 34.376 185.316 33.368 186.212 31.352C187.108 29.304 187.556 26.328 187.556 22.424C187.556 18.52 187.188 15.736 186.452 14.072C185.748 12.408 184.724 11.576 183.38 11.576C182.292 11.576 181.316 11.944 180.452 12.68C179.62 13.416 179.06 14.44 178.772 15.752V33.08C179.54 33.944 180.548 34.376 181.796 34.376Z" fill="white"/>
</svg>
